<svg width="94" height="21" viewBox="0 0 94 21" fill="none" xmlns="http://www.w3.org/2000/svg">
<path d="M15.8313 6.15699C15.8313 7.08029 15.5882 7.94839 15.102 8.76129C14.6259 9.56416 13.8967 10.2616 12.9142 10.8538C13.3801 11.0143 13.7802 11.2452 14.1144 11.5462C14.4487 11.8473 14.7222 12.1885 14.9349 12.5699C15.1476 12.9412 15.3046 13.3427 15.4059 13.7742C15.5071 14.1957 15.5578 14.6172 15.5578 15.0387V18.0796C15.5578 18.4609 15.6489 18.9075 15.8313 19.4194C16.0237 19.9312 16.282 20.4581 16.6061 21H12.6863C12.5343 20.7591 12.4077 20.5082 12.3064 20.2473C12.2153 19.9864 12.1444 19.7305 12.0937 19.4796C12.0532 19.2287 12.0228 18.9928 12.0026 18.772C11.9925 18.5513 11.9874 18.3556 11.9874 18.1849V14.9935C11.9874 14.6824 11.9317 14.3713 11.8203 14.0602C11.719 13.7491 11.5519 13.4731 11.3189 13.2323C11.0859 12.9814 10.777 12.7806 10.3921 12.6301C10.0072 12.4695 9.5413 12.3892 8.99434 12.3892H3.58558V21H0V0H8.99434C10.0882 0 11.0606 0.180645 11.9114 0.541935C12.7622 0.903226 13.4763 1.37491 14.0537 1.95699C14.6411 2.53907 15.0817 3.19642 15.3755 3.92903C15.6793 4.66165 15.8313 5.4043 15.8313 6.15699ZM3.58558 9.4086H8.99434C9.42988 9.4086 9.84009 9.33333 10.225 9.1828C10.62 9.02222 10.9644 8.80645 11.2581 8.53548C11.562 8.25448 11.8 7.91828 11.9722 7.52688C12.1444 7.13548 12.2305 6.70394 12.2305 6.23226C12.2305 5.77061 12.1495 5.34409 11.9874 4.95269C11.8253 4.55125 11.5974 4.21004 11.3037 3.92903C11.0201 3.63799 10.6808 3.41219 10.2858 3.25161C9.89074 3.081 9.46027 2.9957 8.99434 2.9957H3.58558V9.4086Z" fill="black"/>
<path d="M35.9926 0V2.9957H24.6129V8.67097H35.2937V11.6817H24.6129V17.9591H36.4787V21H21.0273V0H35.9926Z" fill="black"/>
<path d="M40.9911 0H49.3777C50.4716 0 51.4389 0.185663 52.2796 0.556989C53.1203 0.928315 53.8243 1.41505 54.3915 2.0172C54.9688 2.60932 55.4043 3.2767 55.6981 4.01935C56.0019 4.76201 56.1539 5.50968 56.1539 6.26237C56.1539 7.0552 56.0019 7.83298 55.6981 8.5957C55.4043 9.34839 54.9688 10.0208 54.3915 10.6129C53.8141 11.195 53.1051 11.6667 52.2644 12.028C51.4237 12.3792 50.4615 12.5548 49.3777 12.5548H44.5767V21H40.9911V0ZM44.5767 9.57419H48.6181C49.3575 9.57419 49.9753 9.48889 50.4716 9.31828C50.9781 9.13763 51.3832 8.89677 51.6871 8.5957C52.0011 8.29462 52.2239 7.94337 52.3556 7.54194C52.4974 7.13047 52.5683 6.68889 52.5683 6.2172C52.5683 5.75556 52.4822 5.32903 52.31 4.93763C52.1378 4.5362 51.8846 4.19498 51.5503 3.91398C51.2161 3.62294 50.8008 3.39713 50.3045 3.23656C49.8183 3.07599 49.2562 2.9957 48.6181 2.9957H44.5767V9.57419Z" fill="black"/>
<path d="M75.2213 0V2.9957H63.8416V8.67097H74.5224V11.6817H63.8416V17.9591H75.7075V21H60.256V0H75.2213Z" fill="black"/>
<path d="M83.8054 0V17.9591H94V21H80.2198V0H83.8054Z" fill="black"/>
</svg>
