<svg width="30" height="30" viewBox="0 0 30 30" fill="none" xmlns="http://www.w3.org/2000/svg">
<path fill-rule="evenodd" clip-rule="evenodd" d="M11.7837 5.69687C7.07712 8.71956 4.46238 12.2376 3.93953 16.2512C3.12556 22.4994 8.71318 25.5577 11.5444 22.8098C14.3756 20.062 12.6784 16.5741 10.6284 15.6207C8.5783 14.6673 7.32462 14.9994 7.5433 13.7254C7.76199 12.4513 10.6786 8.91894 13.241 7.27387C13.411 7.12931 13.4757 6.84881 13.312 6.63606C13.2043 6.49606 12.9931 6.2216 12.6784 5.81258C12.4032 5.45492 12.1396 5.4683 11.7837 5.69687Z" fill="#333333"/>
<path fill-rule="evenodd" clip-rule="evenodd" d="M24.1743 5.69784C19.4678 8.72054 16.853 12.2386 16.3301 16.2522C15.5162 22.5003 21.1038 25.5587 23.935 22.8108C26.7662 20.063 25.0691 16.5751 23.019 15.6217C20.969 14.6683 19.7152 15.0003 19.934 13.7263C20.1526 12.4523 23.0693 8.91991 25.6316 7.27485C25.8016 7.13029 25.8663 6.84979 25.7026 6.63704C25.595 6.49704 25.3838 6.22258 25.0691 5.81356C24.7939 5.4559 24.5303 5.46928 24.1743 5.69784Z" fill="#333333"/>
</svg>
